<svg xmlns="http://www.w3.org/2000/svg" version="1.1" viewBox="0 0 543 150">
  <path fill="#5eadfd" d="M 37.18 81.92 C 41.95 88.73 48.34 94.86 54.83 100.20 Q 56.65 101.69 59.02 102.68 A 1.60 1.60 0.0 0 0 59.99 102.77 Q 61.80 102.38 63.55 101.05 Q 66.04 99.17 72.26 93.78 Q 72.71 93.39 75.75 91.99 C 77.42 91.22 79.35 92.30 80.76 93.45 Q 83.93 96.05 98.72 108.56 C 100.49 110.06 101.16 110.82 100.86 113.07 Q 100.55 115.43 98.81 119.26 C 96.66 123.98 94.16 126.63 89.28 128.57 Q 81.46 131.68 72.80 131.52 Q 69.71 131.46 64.01 129.00 Q 45.11 120.85 30.30 104.69 Q 26.72 100.78 21.30 93.04 Q 15.88 85.30 13.43 80.59 Q 3.32 61.14 2.13 40.60 Q 1.77 34.40 2.77 31.47 Q 5.59 23.28 11.18 17.00 C 14.68 13.08 18.02 11.64 23.19 11.23 Q 27.39 10.91 29.71 11.43 C 31.93 11.91 32.41 12.80 33.22 14.98 Q 39.91 33.16 41.27 37.03 C 41.86 38.75 42.22 40.93 40.92 42.23 Q 38.57 44.61 38.05 44.90 Q 30.85 48.90 28.23 50.60 Q 26.39 51.79 25.40 53.35 A 1.60 1.60 0.0 0 0 25.15 54.29 Q 25.27 56.86 26.05 59.08 C 28.85 67.00 32.42 75.10 37.18 81.92 Z"/>
  <path fill="#ff33ad" d="M 74.42 42.66 Q 78.14 31.32 90.49 28.12 C 100.84 25.43 114.33 28.61 119.89 38.62 C 132.96 62.13 110.95 85.72 94.35 99.48 A 0.80 0.79 45.3 0 1 93.33 99.47 Q 87.26 94.42 82.01 90.22 Q 77.41 86.53 72.42 89.91 Q 66.66 93.82 62.05 98.07 Q 60.12 99.85 58.44 98.62 Q 36.55 82.71 28.86 56.73 C 28.16 54.35 29.08 53.73 30.96 52.69 Q 38.94 48.23 39.07 48.14 C 43.05 45.44 46.49 42.55 44.63 37.08 Q 43.25 33.03 41.87 29.17 A 0.73 0.72 72.3 0 1 42.35 28.23 C 54.58 24.80 70.48 29.05 74.00 42.65 A 0.22 0.22 0.0 0 0 74.42 42.66 Z"/>
  <path fill="#5eadfd" fill-rule="evenodd" d="M 162.87 65.40 A 0.24 0.24 0.0 0 0 163.29 65.24 L 163.29 35.76 A 0.43 0.43 0.0 0 1 163.72 35.33 L 180.14 35.33 A 0.79 0.78 0.0 0 1 180.93 36.11 L 180.93 116.42 A 0.65 0.64 0.0 0 1 180.28 117.06 L 166.15 117.06 A 0.95 0.95 0.0 0 1 165.20 116.11 L 165.20 110.10 A 0.61 0.60 -29.4 0 0 164.08 109.79 Q 160.51 115.63 153.09 117.37 Q 137.28 121.07 128.40 107.74 C 123.28 100.06 122.31 90.32 123.89 81.40 C 125.47 72.57 132.42 62.70 141.70 60.38 C 149.21 58.50 157.68 59.41 162.87 65.40 Z M 141.06 88.46 C 140.94 94.78 143.03 102.67 150.27 104.11 C 156.66 105.38 161.80 101.83 162.90 95.47 Q 163.21 93.67 163.30 88.88 Q 163.39 84.08 163.14 82.27 C 162.28 75.88 157.28 72.14 150.85 73.17 C 143.55 74.34 141.18 82.14 141.06 88.46 Z"/>
  <path fill="#5eadfd" fill-rule="evenodd" d="M 198.06 74.69 L 195.31 65.59 A 1.20 1.20 0.0 0 1 195.92 64.17 C 206.24 59.02 223.12 57.14 232.62 63.45 C 240.45 68.64 241.59 76.85 241.62 86.65 Q 241.65 97.51 241.86 109.44 C 241.90 111.72 242.29 114.31 242.46 116.29 A 0.54 0.54 0.0 0 1 241.92 116.89 L 227.61 116.96 A 0.55 0.54 -7.9 0 1 227.08 116.56 L 225.78 112.27 A 0.34 0.34 0.0 0 0 225.22 112.12 C 218.05 118.79 206.65 120.25 198.29 114.93 C 193.81 112.07 191.12 105.97 191.28 100.61 Q 191.66 87.88 204.53 82.78 Q 212.96 79.44 221.85 79.89 A 2.21 2.21 0.0 0 0 223.87 76.56 L 223.22 75.48 A 7.79 7.77 76.9 0 0 217.15 71.68 Q 207.51 70.90 199.37 75.23 A 0.92 0.91 67.4 0 1 198.06 74.69 Z M 223.97 90.35 C 218.24 90.34 211.04 91.01 208.73 96.80 C 207.15 100.78 209.58 105.37 213.84 105.90 Q 221.20 106.82 224.33 99.86 Q 225.40 97.47 224.73 91.03 A 0.77 0.76 86.6 0 0 223.97 90.35 Z"/>
  <ellipse fill="#5eadfd" cx="264.37" cy="45.07" rx="9.33" ry="8.92" transform="rotate(-177.2 264.37 45.07)"/>
  <rect fill="#5eadfd" x="255.38" y="60.67" width="17.74" height="56.42" rx="0.62"/>
  <rect fill="#5eadfd" x="287.02" y="35.22" width="17.72" height="81.78" rx="0.69"/>
  <path fill="#5eadfd" d="M 343.11 98.57 A 0.17 0.17 0.0 0 0 343.44 98.57 L 352.69 61.42 A 0.75 0.75 0.0 0 1 353.42 60.85 L 370.58 60.85 A 0.51 0.51 0.0 0 1 371.06 61.54 Q 366.52 74.12 359.61 94.40 Q 355.19 107.38 350.44 117.45 C 344.47 130.10 336.93 139.75 322.30 142.18 A 0.67 0.66 78.2 0 1 321.55 141.68 L 318.34 128.49 A 0.91 0.90 76.0 0 1 318.99 127.40 Q 328.35 124.97 333.08 117.37 Q 334.30 115.39 333.57 113.52 Q 326.82 96.41 312.84 61.90 A 0.81 0.81 0.0 0 1 313.59 60.79 L 331.52 60.79 A 0.47 0.47 0.0 0 1 331.97 61.13 L 343.11 98.57 Z"/>
  <path fill="#ff33ad" d="M 419.10 61.33 A 0.66 0.65 14.8 0 1 419.57 62.12 L 416.63 73.93 A 0.44 0.44 0.0 0 1 416.06 74.23 Q 409.70 71.95 402.67 73.44 C 394.09 75.25 391.27 83.85 392.15 91.60 C 393.11 99.97 399.85 104.79 408.27 104.54 Q 410.04 104.49 414.56 103.99 A 1.65 1.57 -62.5 0 0 415.20 103.77 L 416.49 102.99 A 0.62 0.61 -19.8 0 1 417.41 103.42 L 419.23 114.80 A 1.15 1.15 0.0 0 1 418.45 116.07 C 408.21 119.37 395.13 119.25 385.64 113.36 C 375.10 106.82 372.13 93.18 374.93 81.47 C 378.18 67.84 389.50 60.39 403.00 59.55 Q 410.43 59.08 419.10 61.33 Z"/>
  <path fill="#ff33ad" fill-rule="evenodd" d="M 432.90 74.59 L 430.19 65.48 A 1.20 1.20 0.0 0 1 430.81 64.06 C 441.16 58.95 458.05 57.15 467.53 63.51 C 475.34 68.74 476.44 76.96 476.42 86.77 Q 476.40 97.63 476.55 109.57 C 476.58 111.85 476.96 114.44 477.12 116.43 A 0.54 0.54 0.0 0 1 476.58 117.02 L 462.26 117.02 A 0.55 0.54 -7.6 0 1 461.73 116.62 L 460.45 112.32 A 0.34 0.34 0.0 0 0 459.89 112.17 C 452.69 118.81 441.27 120.22 432.93 114.85 C 428.47 111.97 425.80 105.85 425.99 100.49 Q 426.43 87.76 439.33 82.72 Q 447.78 79.42 456.67 79.91 A 2.21 2.21 0.0 0 0 458.71 76.59 L 458.07 75.50 A 7.79 7.77 77.2 0 0 452.01 71.67 Q 442.37 70.85 434.21 75.14 A 0.92 0.91 67.7 0 1 432.90 74.59 Z M 458.43 90.42 C 452.82 90.54 445.78 91.37 443.65 97.09 C 442.20 101.02 444.69 105.46 448.87 105.88 Q 456.10 106.61 459.00 99.72 Q 459.99 97.36 459.19 91.06 A 0.75 0.75 0.0 0 0 458.43 90.42 Z"/>
  <rect fill="#ff33ad" x="490.02" y="35.35" width="17.74" height="81.60" rx="1.02"/>
  <rect fill="#ff33ad" x="521.55" y="35.23" width="17.68" height="81.78" rx="0.88"/>
</svg>
