<?xml version="1.0" encoding="UTF-8" standalone="no"?>
<!DOCTYPE svg PUBLIC "-//W3C//DTD SVG 1.1//EN" "http://www.w3.org/Graphics/SVG/1.1/DTD/svg11.dtd">
<svg xmlns="http://www.w3.org/2000/svg" version="1.1" viewBox="0.00 0.00 364.00 413.00">
<g stroke-width="2.00" fill="none" stroke-linecap="butt">
<path stroke="#e9e5d6" vector-effect="non-scaling-stroke" d="
  M 32.56 381.01
  L 27.81 381.02
  A 1.29 1.04 32.6 0 0 27.54 381.05
  C 24.02 381.71 11.98 383.92 9.81 386.91
  C 6.77 391.09 13.75 393.54 16.55 394.18
  Q 36.64 398.76 52.83 399.82
  C 62.47 400.45 75.80 400.04 86.56 399.84
  Q 88.11 399.81 88.69 399.32
  A 2.51 2.51 0.0 0 1 91.92 399.31
  Q 92.80 400.05 94.25 400.02
  Q 105.68 399.80 127.75 399.82
  Q 200.21 399.88 282.39 399.27
  C 303.61 399.12 320.82 397.97 339.63 394.61
  C 344.05 393.81 352.51 392.20 355.14 388.44
  A 2.15 2.15 0.0 0 0 354.93 385.73
  Q 353.22 383.93 350.69 383.06
  Q 345.22 381.17 336.74 380.30
  Q 334.02 380.02 332.15 379.28"
/>
<path stroke="#94928b" vector-effect="non-scaling-stroke" d="
  M 332.15 379.28
  Q 342.03 369.17 342.03 355.75
  Q 342.02 278.85 342.00 67.14
  Q 341.99 59.16 341.29 55.91
  C 338.85 44.64 330.86 35.49 319.20 33.62
  A 1.18 1.18 0.0 0 1 318.39 33.07
  Q 314.61 26.59 313.43 25.33
  Q 305.96 17.32 294.76 17.32
  Q 203.14 17.35 42.24 17.25
  Q 28.11 17.25 21.60 29.36
  C 19.80 32.70 18.70 37.44 18.69 41.00
  Q 18.55 136.11 18.53 348.18
  Q 18.53 358.12 19.99 363.01
  Q 23.20 373.73 32.56 381.01"
/>
<path stroke="#817f74" vector-effect="non-scaling-stroke" d="
  M 332.15 379.28
  Q 322.89 388.26 311.50 388.27
  Q 188.96 388.33 95.81 388.13
  A 0.46 0.46 0.0 0 0 95.35 388.57
  L 95.12 395.07
  A 1.67 1.58 -31.2 0 1 94.94 395.72
  Q 92.60 400.11 88.02 397.57
  Q 79.43 392.81 72.72 388.61
  A 0.56 0.55 -45.5 0 0 72.12 388.62
  Q 65.12 393.16 56.62 397.90
  Q 52.85 399.99 50.38 396.24
  A 2.09 2.08 28.5 0 1 50.04 395.10
  L 50.04 388.17
  A 0.53 0.52 3.1 0 0 49.57 387.65
  Q 40.08 386.62 32.56 381.01"
/>
<path stroke="#434d46" vector-effect="non-scaling-stroke" d="
  M 27.86 28.71
  C 23.66 35.75 23.98 41.35 24.07 51.01
  Q 24.11 55.24 24.00 349.01
  Q 24.00 353.72 24.31 358.28
  A 0.26 0.26 0.0 0 0 24.80 358.38
  Q 29.48 349.61 39.80 349.30
  Q 49.17 349.01 55.04 349.23
  A 0.57 0.56 89.5 0 0 55.62 348.63
  L 55.36 344.45"
/>
<path stroke="#49544c" vector-effect="non-scaling-stroke" d="
  M 55.36 344.45
  L 55.76 23.29
  A 0.67 0.67 0.0 0 0 55.08 22.62
  Q 48.17 22.76 40.76 22.80
  Q 32.94 22.83 27.86 28.71"
/>
<path stroke="#61746a" vector-effect="non-scaling-stroke" d="
  M 55.36 344.45
  Q 55.38 345.54 55.08 346.44
  A 0.67 0.66 10.9 0 1 54.39 346.90
  C 45.51 346.24 37.88 346.45 30.12 349.10
  A 0.66 0.66 0.0 0 1 29.25 348.51
  Q 29.01 344.56 29.05 341.76
  C 29.52 313.37 28.92 276.30 29.20 244.15
  Q 29.49 211.61 29.07 171.58
  Q 28.87 152.33 29.03 147.20
  Q 29.38 136.07 29.09 122.82
  Q 28.89 113.27 29.14 86.24
  Q 29.38 61.10 29.35 36.95
  Q 29.35 32.17 27.86 28.71"
/>
<path stroke="#515443" vector-effect="non-scaling-stroke" d="
  M 60.33 346.96
  Q 60.10 348.63 60.90 349.26
  A 0.35 0.31 -21.7 0 0 61.12 349.34
  Q 280.95 349.28 287.79 349.35
  Q 297.72 349.46 302.01 347.75
  Q 308.54 345.15 312.61 338.38
  Q 314.21 335.72 314.26 333.24"
/>
<path stroke="#6c6e5a" vector-effect="non-scaling-stroke" d="
  M 314.26 333.24
  Q 314.59 332.66 314.50 331.96"
/>
<path stroke="#817f74" vector-effect="non-scaling-stroke" d="
  M 314.50 331.96
  Q 315.54 327.80 315.54 322.75
  Q 315.54 184.37 315.60 46.00
  Q 315.60 43.36 314.90 40.17"
/>
<path stroke="#6c6e5a" vector-effect="non-scaling-stroke" d="
  M 314.90 40.17
  Q 314.55 33.88 310.61 29.39
  Q 307.14 25.44 301.25 23.54
  Q 298.15 22.54 290.14 22.56
  Q 203.73 22.73 61.48 22.55
  A 0.58 0.57 -90.0 0 0 60.91 23.13
  C 60.88 31.78 60.40 41.18 60.40 48.96
  Q 60.34 128.23 60.15 338.75
  Q 60.14 342.96 60.33 346.96"
/>
<path stroke="#c1c1a6" vector-effect="non-scaling-stroke" d="
  M 314.90 40.17
  Q 314.14 41.14 314.15 43.73
  Q 314.25 81.64 314.08 191.16
  Q 314.06 204.78 314.24 224.34
  Q 314.40 241.67 314.42 257.50
  Q 314.43 268.59 314.29 279.66
  C 314.11 294.92 314.31 308.83 314.22 323.44
  C 314.20 326.49 313.73 328.83 313.35 331.59
  A 0.47 0.47 0.0 0 0 313.85 332.12
  Q 314.21 332.09 314.50 331.96"
/>
<path stroke="#929675" vector-effect="non-scaling-stroke" d="
  M 314.26 333.24
  L 310.75 338.19
  A 1.64 1.58 88.9 0 1 310.50 338.46
  C 307.91 340.63 305.11 343.52 301.82 344.89
  Q 297.08 346.86 292.50 346.86
  Q 176.42 346.80 60.33 346.96"
/>
<path stroke="#515443" vector-effect="non-scaling-stroke" d="
  M 325.57 370.95
  Q 318.16 378.13 309.51 378.82
  Q 306.08 379.09 285.00 379.07
  Q 175.07 378.99 96.00 379.17
  A 0.74 0.74 0.0 0 0 95.26 379.91
  L 95.26 382.40
  A 0.90 0.90 0.0 0 0 96.16 383.30
  Q 202.75 383.28 309.75 383.26
  Q 315.06 383.26 320.08 381.49"
/>
<path stroke="#646754" vector-effect="non-scaling-stroke" d="
  M 320.08 381.49
  Q 331.98 375.65 335.61 364.13
  Q 337.22 359.00 337.20 345.31
  Q 337.03 229.97 337.17 62.28
  Q 337.17 57.06 334.65 50.88
  C 332.03 44.48 327.28 40.56 320.84 38.70
  A 0.80 0.80 0.0 0 0 320.15 40.12
  Q 330.25 47.38 332.43 59.12
  C 333.20 63.28 332.94 68.39 332.96 72.85
  Q 333.27 135.63 332.95 347.75
  Q 332.93 360.90 325.57 370.95"
/>
<path stroke="#8a8f6f" vector-effect="non-scaling-stroke" d="
  M 320.08 381.49
  Q 321.15 379.44 323.40 376.68
  Q 325.25 374.41 325.57 370.95"
/>
<path stroke="#847760" vector-effect="non-scaling-stroke" d="
  M 317.43 340.24
  Q 312.02 349.76 302.74 352.94
  Q 298.08 354.53 285.59 354.52
  Q 204.03 354.45 115.58 354.49
  C 95.63 354.50 70.14 354.84 46.26 354.51
  C 43.11 354.46 33.98 354.17 34.09 358.95
  C 34.27 367.23 41.83 373.74 49.29 375.38
  A 0.47 0.47 0.0 0 0 49.87 374.94
  Q 50.21 366.96 50.11 359.67
  Q 50.08 357.03 53.82 356.59"
/>
<path stroke="#785a30" vector-effect="non-scaling-stroke" d="
  M 53.82 356.59
  L 53.99 364.79"
/>
<path stroke="#8d703f" vector-effect="non-scaling-stroke" d="
  M 53.99 364.79
  L 54.07 393.72
  A 0.40 0.40 0.0 0 0 54.67 394.06
  L 71.36 384.42
  A 2.39 2.37 -44.8 0 1 73.73 384.42
  L 90.58 394.15
  A 0.31 0.30 15.0 0 0 91.04 393.89
  L 91.09 363.08"
/>
<path stroke="#785a30" vector-effect="non-scaling-stroke" d="
  M 91.09 363.08
  Q 90.95 359.84 91.77 357.12"
/>
<path stroke="#847760" vector-effect="non-scaling-stroke" d="
  M 91.77 357.12
  Q 93.70 356.73 94.03 356.96
  Q 95.69 358.13 95.53 360.16
  Q 95.16 364.79 95.51 368.78"
/>
<path stroke="#958c7b" vector-effect="non-scaling-stroke" d="
  M 95.51 368.78
  L 95.57 375.20
  A 0.54 0.53 89.4 0 0 96.10 375.73
  Q 206.26 375.73 300.90 375.69
  Q 310.01 375.69 313.61 374.37
  Q 324.15 370.49 328.64 359.12
  Q 330.67 353.98 330.66 346.02
  Q 330.59 226.41 330.68 61.75
  C 330.68 56.74 328.77 50.69 325.27 46.47
  Q 323.07 43.80 320.83 41.32
  A 0.40 0.40 0.0 0 0 320.14 41.61
  Q 320.61 50.05 320.59 58.75
  Q 320.54 75.81 320.46 325.75
  Q 320.45 333.43 317.43 340.24"
/>
<path stroke="#edd6b2" vector-effect="non-scaling-stroke" d="
  M 95.51 368.78
  Q 96.32 367.99 97.60 369.20
  A 0.56 0.55 -23.3 0 0 97.98 369.35
  Q 195.70 369.25 293.98 369.34
  Q 306.51 369.35 310.36 367.87
  C 320.65 363.89 324.27 354.50 326.47 344.12
  A 5.50 5.50 0.0 0 0 326.58 343.13
  Q 326.75 337.15 326.67 260.01
  Q 326.59 187.57 326.72 69.25
  C 326.73 64.73 327.08 60.58 326.89 56.28
  Q 326.76 53.33 325.57 51.71
  A 0.21 0.20 28.3 0 0 325.20 51.82
  C 324.89 59.22 325.11 67.43 325.11 72.48
  Q 324.87 213.58 325.03 278.00
  Q 325.11 313.69 324.78 336.32
  C 324.75 338.53 324.07 340.08 324.12 342.62
  Q 324.29 351.27 319.03 358.64
  C 313.42 366.51 304.28 367.89 295.00 367.87
  Q 250.58 367.79 118.50 367.89
  Q 113.50 367.89 99.38 367.75
  A 1.07 1.07 0.0 0 1 98.32 366.68
  L 98.32 363.15
  A 1.41 1.40 -0.8 0 1 99.69 361.75
  Q 110.74 361.48 112.00 361.48
  Q 209.54 361.73 296.26 361.51
  C 305.49 361.48 311.82 358.23 315.75 350.55
  Q 317.52 347.10 318.12 344.74
  Q 318.64 342.69 317.43 340.24"
/>
<path stroke="#d0a567" vector-effect="non-scaling-stroke" d="
  M 91.77 357.12
  Q 91.01 356.33 90.00 356.32
  Q 75.57 356.22 53.82 356.59"
/>
<path stroke="#d99e46" vector-effect="non-scaling-stroke" d="
  M 91.09 363.08
  L 89.82 364.54
  A 1.01 0.97 -69.1 0 1 89.07 364.89
  L 53.99 364.79"
/>
<path stroke="#434d46" vector-effect="non-scaling-stroke" d="
  M 30.41 359.08
  Q 28.31 361.19 27.56 362.13
  C 25.51 364.73 28.21 369.71 30.02 371.78
  C 35.19 377.70 41.31 382.35 49.17 383.08
  A 0.81 0.81 0.0 0 0 50.05 382.27
  L 50.05 379.95
  A 1.29 1.28 -85.2 0 0 48.98 378.68
  Q 36.79 376.63 31.78 365.03
  Q 30.64 362.39 30.91 359.31
  A 0.29 0.29 0.0 0 0 30.41 359.08"
/>
<path stroke="#6c6e5a" vector-effect="non-scaling-stroke" d="
  M 185.41 152.34
  C 186.01 154.28 185.80 156.40 186.34 158.86
  C 189.43 172.70 199.47 183.81 214.47 181.67
  Q 221.25 180.70 227.28 175.41
  Q 233.47 169.96 236.27 164.05
  Q 239.90 156.39 241.83 144.94
  C 242.72 139.61 241.79 133.92 240.85 128.19
  C 238.04 111.06 222.19 95.58 204.62 107.40
  C 196.29 113.00 190.47 122.65 187.81 132.08
  Q 186.59 136.42 185.63 141.79
  A 0.38 0.38 0.0 0 1 184.88 141.80
  Q 184.38 139.42 183.93 136.81
  C 181.57 122.95 171.12 103.26 154.70 103.07
  C 142.46 102.93 133.47 114.27 130.37 125.38
  Q 128.15 133.31 128.25 141.39
  C 128.36 150.14 131.93 164.88 138.47 172.00
  C 145.75 179.93 155.13 184.17 165.65 180.59
  C 177.59 176.53 183.62 164.31 184.67 152.42
  A 0.38 0.38 0.0 0 1 185.41 152.34"
/>
<path stroke="#6c6e5a" vector-effect="non-scaling-stroke" d="
  M 101.98 154.18
  C 91.82 158.08 87.54 169.44 87.33 179.82
  C 87.02 195.41 93.29 210.93 106.91 219.68
  C 113.53 223.93 120.90 224.82 128.06 222.07
  C 135.22 219.32 140.09 213.72 142.16 206.14
  C 146.42 190.52 140.69 174.80 130.02 163.42
  C 122.92 155.84 112.14 150.28 101.98 154.18"
/>
<path stroke="#6c6e5a" vector-effect="non-scaling-stroke" d="
  M 239.12 222.08
  Q 242.23 223.41 244.26 223.74
  C 255.12 225.51 266.55 217.77 272.49 209.07
  Q 283.71 192.64 280.70 173.62
  Q 278.44 159.42 267.85 154.89
  Q 257.25 150.36 245.44 158.54
  Q 229.60 169.51 225.48 188.97
  C 223.29 199.28 225.59 212.89 234.38 219.52
  Q 236.02 220.75 239.12 222.08"
/>
<path stroke="#6c6e5a" vector-effect="non-scaling-stroke" d="
  M 231.05 217.81
  C 224.60 210.88 219.22 200.60 215.48 195.30
  Q 206.20 182.14 191.71 178.98
  C 178.40 176.08 164.50 181.41 155.71 191.93
  Q 151.76 196.66 149.63 200.13
  C 144.26 208.90 139.14 215.58 132.31 222.18
  Q 126.73 227.58 124.42 231.43
  Q 119.72 239.26 118.42 243.66
  C 114.86 255.76 117.26 269.75 126.78 278.70
  C 134.86 286.28 147.73 287.14 158.05 284.53
  Q 164.54 282.89 171.02 281.28
  Q 183.09 278.26 195.76 281.47
  Q 209.96 285.07 215.87 285.84
  C 232.88 288.07 247.35 276.36 249.56 259.54
  Q 250.73 250.63 248.50 243.75
  C 245.13 233.34 238.58 225.90 231.05 217.81"
/>
<path stroke="#958c7b" vector-effect="non-scaling-stroke" d="
  M 152.7769 110.5909
  A 32.34 20.97 -96.7 0 0 135.7232 145.1566
  A 32.34 20.97 -96.7 0 0 160.3231 174.8291
  A 32.34 20.97 -96.7 0 0 177.3768 140.2634
  A 32.34 20.97 -96.7 0 0 152.7769 110.5909"
/>
<path stroke="#958c7b" vector-effect="non-scaling-stroke" d="
  M 219.2729 111.0018
  A 32.33 20.90 -80.2 0 0 193.1750 139.3026
  A 32.33 20.90 -80.2 0 0 208.2671 174.7182
  A 32.33 20.90 -80.2 0 0 234.3650 146.4174
  A 32.33 20.90 -80.2 0 0 219.2729 111.0018"
/>
<path stroke="#958c7b" vector-effect="non-scaling-stroke" d="
  M 125.43 215.57
  C 136.44 211.37 138.00 197.75 135.36 187.29
  Q 131.73 172.91 119.92 164.02
  Q 111.85 157.94 104.53 160.74
  Q 97.20 163.53 95.22 173.43
  Q 92.33 187.93 99.19 201.08
  C 104.18 210.64 114.41 219.76 125.43 215.57"
/>
<path stroke="#958c7b" vector-effect="non-scaling-stroke" d="
  M 242.09 215.60
  C 252.99 220.20 263.58 211.40 268.92 201.98
  Q 276.27 189.03 273.88 174.39
  Q 272.24 164.38 264.99 161.32
  Q 257.74 158.26 249.43 164.07
  Q 237.27 172.58 233.12 186.88
  C 230.10 197.28 231.19 211.00 242.09 215.60"
/>
<path stroke="#958c7b" vector-effect="non-scaling-stroke" d="
  M 129.20 236.92
  C 116.22 257.46 127.99 284.70 155.40 277.83
  Q 159.77 276.73 165.57 274.97
  C 176.55 271.65 188.90 271.43 199.90 274.73
  Q 208.36 277.27 211.23 278.01
  C 221.62 280.67 233.43 277.90 239.15 268.40
  C 245.17 258.42 243.71 244.95 237.19 235.68
  C 233.30 230.15 223.36 221.28 219.55 214.69
  C 215.02 206.88 210.92 199.32 204.33 193.22
  C 193.49 183.17 177.48 182.94 166.04 192.17
  Q 159.79 197.22 157.16 201.31
  Q 152.95 207.88 148.24 214.96
  C 143.92 221.45 134.29 228.88 129.20 236.92"
/>
</g>
<path fill="none" d="
  M 364.00 0.00
  L 364.00 413.00
  L 0.00 413.00
  L 0.00 0.00
  L 364.00 0.00
  Z
  M 32.56 381.01
  L 27.81 381.02
  A 1.29 1.04 32.6 0 0 27.54 381.05
  C 24.02 381.71 11.98 383.92 9.81 386.91
  C 6.77 391.09 13.75 393.54 16.55 394.18
  Q 36.64 398.76 52.83 399.82
  C 62.47 400.45 75.80 400.04 86.56 399.84
  Q 88.11 399.81 88.69 399.32
  A 2.51 2.51 0.0 0 1 91.92 399.31
  Q 92.80 400.05 94.25 400.02
  Q 105.68 399.80 127.75 399.82
  Q 200.21 399.88 282.39 399.27
  C 303.61 399.12 320.82 397.97 339.63 394.61
  C 344.05 393.81 352.51 392.20 355.14 388.44
  A 2.15 2.15 0.0 0 0 354.93 385.73
  Q 353.22 383.93 350.69 383.06
  Q 345.22 381.17 336.74 380.30
  Q 334.02 380.02 332.15 379.28
  Q 342.03 369.17 342.03 355.75
  Q 342.02 278.85 342.00 67.14
  Q 341.99 59.16 341.29 55.91
  C 338.85 44.64 330.86 35.49 319.20 33.62
  A 1.18 1.18 0.0 0 1 318.39 33.07
  Q 314.61 26.59 313.43 25.33
  Q 305.96 17.32 294.76 17.32
  Q 203.14 17.35 42.24 17.25
  Q 28.11 17.25 21.60 29.36
  C 19.80 32.70 18.70 37.44 18.69 41.00
  Q 18.55 136.11 18.53 348.18
  Q 18.53 358.12 19.99 363.01
  Q 23.20 373.73 32.56 381.01
  Z"
/>
<path fill="#2b2c28" d="
  M 332.15 379.28
  Q 322.89 388.26 311.50 388.27
  Q 188.96 388.33 95.81 388.13
  A 0.46 0.46 0.0 0 0 95.35 388.57
  L 95.12 395.07
  A 1.67 1.58 -31.2 0 1 94.94 395.72
  Q 92.60 400.11 88.02 397.57
  Q 79.43 392.81 72.72 388.61
  A 0.56 0.55 -45.5 0 0 72.12 388.62
  Q 65.12 393.16 56.62 397.90
  Q 52.85 399.99 50.38 396.24
  A 2.09 2.08 28.5 0 1 50.04 395.10
  L 50.04 388.17
  A 0.53 0.52 3.1 0 0 49.57 387.65
  Q 40.08 386.62 32.56 381.01
  Q 23.20 373.73 19.99 363.01
  Q 18.53 358.12 18.53 348.18
  Q 18.55 136.11 18.69 41.00
  C 18.70 37.44 19.80 32.70 21.60 29.36
  Q 28.11 17.25 42.24 17.25
  Q 203.14 17.35 294.76 17.32
  Q 305.96 17.32 313.43 25.33
  Q 314.61 26.59 318.39 33.07
  A 1.18 1.18 0.0 0 0 319.20 33.62
  C 330.86 35.49 338.85 44.64 341.29 55.91
  Q 341.99 59.16 342.00 67.14
  Q 342.02 278.85 342.03 355.75
  Q 342.03 369.17 332.15 379.28
  Z
  M 27.86 28.71
  C 23.66 35.75 23.98 41.35 24.07 51.01
  Q 24.11 55.24 24.00 349.01
  Q 24.00 353.72 24.31 358.28
  A 0.26 0.26 0.0 0 0 24.80 358.38
  Q 29.48 349.61 39.80 349.30
  Q 49.17 349.01 55.04 349.23
  A 0.57 0.56 89.5 0 0 55.62 348.63
  L 55.36 344.45
  L 55.76 23.29
  A 0.67 0.67 0.0 0 0 55.08 22.62
  Q 48.17 22.76 40.76 22.80
  Q 32.94 22.83 27.86 28.71
  Z
  M 60.33 346.96
  Q 60.10 348.63 60.90 349.26
  A 0.35 0.31 -21.7 0 0 61.12 349.34
  Q 280.95 349.28 287.79 349.35
  Q 297.72 349.46 302.01 347.75
  Q 308.54 345.15 312.61 338.38
  Q 314.21 335.72 314.26 333.24
  Q 314.59 332.66 314.50 331.96
  Q 315.54 327.80 315.54 322.75
  Q 315.54 184.37 315.60 46.00
  Q 315.60 43.36 314.90 40.17
  Q 314.55 33.88 310.61 29.39
  Q 307.14 25.44 301.25 23.54
  Q 298.15 22.54 290.14 22.56
  Q 203.73 22.73 61.48 22.55
  A 0.58 0.57 -90.0 0 0 60.91 23.13
  C 60.88 31.78 60.40 41.18 60.40 48.96
  Q 60.34 128.23 60.15 338.75
  Q 60.14 342.96 60.33 346.96
  Z
  M 325.57 370.95
  Q 318.16 378.13 309.51 378.82
  Q 306.08 379.09 285.00 379.07
  Q 175.07 378.99 96.00 379.17
  A 0.74 0.74 0.0 0 0 95.26 379.91
  L 95.26 382.40
  A 0.90 0.90 0.0 0 0 96.16 383.30
  Q 202.75 383.28 309.75 383.26
  Q 315.06 383.26 320.08 381.49
  Q 331.98 375.65 335.61 364.13
  Q 337.22 359.00 337.20 345.31
  Q 337.03 229.97 337.17 62.28
  Q 337.17 57.06 334.65 50.88
  C 332.03 44.48 327.28 40.56 320.84 38.70
  A 0.80 0.80 0.0 0 0 320.15 40.12
  Q 330.25 47.38 332.43 59.12
  C 333.20 63.28 332.94 68.39 332.96 72.85
  Q 333.27 135.63 332.95 347.75
  Q 332.93 360.90 325.57 370.95
  Z
  M 317.43 340.24
  Q 312.02 349.76 302.74 352.94
  Q 298.08 354.53 285.59 354.52
  Q 204.03 354.45 115.58 354.49
  C 95.63 354.50 70.14 354.84 46.26 354.51
  C 43.11 354.46 33.98 354.17 34.09 358.95
  C 34.27 367.23 41.83 373.74 49.29 375.38
  A 0.47 0.47 0.0 0 0 49.87 374.94
  Q 50.21 366.96 50.11 359.67
  Q 50.08 357.03 53.82 356.59
  L 53.99 364.79
  L 54.07 393.72
  A 0.40 0.40 0.0 0 0 54.67 394.06
  L 71.36 384.42
  A 2.39 2.37 -44.8 0 1 73.73 384.42
  L 90.58 394.15
  A 0.31 0.30 15.0 0 0 91.04 393.89
  L 91.09 363.08
  Q 90.95 359.84 91.77 357.12
  Q 93.70 356.73 94.03 356.96
  Q 95.69 358.13 95.53 360.16
  Q 95.16 364.79 95.51 368.78
  L 95.57 375.20
  A 0.54 0.53 89.4 0 0 96.10 375.73
  Q 206.26 375.73 300.90 375.69
  Q 310.01 375.69 313.61 374.37
  Q 324.15 370.49 328.64 359.12
  Q 330.67 353.98 330.66 346.02
  Q 330.59 226.41 330.68 61.75
  C 330.68 56.74 328.77 50.69 325.27 46.47
  Q 323.07 43.80 320.83 41.32
  A 0.40 0.40 0.0 0 0 320.14 41.61
  Q 320.61 50.05 320.59 58.75
  Q 320.54 75.81 320.46 325.75
  Q 320.45 333.43 317.43 340.24
  Z
  M 30.41 359.08
  Q 28.31 361.19 27.56 362.13
  C 25.51 364.73 28.21 369.71 30.02 371.78
  C 35.19 377.70 41.31 382.35 49.17 383.08
  A 0.81 0.81 0.0 0 0 50.05 382.27
  L 50.05 379.95
  A 1.29 1.28 -85.2 0 0 48.98 378.68
  Q 36.79 376.63 31.78 365.03
  Q 30.64 362.39 30.91 359.31
  A 0.29 0.29 0.0 0 0 30.41 359.08
  Z"
/>
<path fill="#677b70" d="
  M 55.36 344.45
  Q 55.38 345.54 55.08 346.44
  A 0.67 0.66 10.9 0 1 54.39 346.90
  C 45.51 346.24 37.88 346.45 30.12 349.10
  A 0.66 0.66 0.0 0 1 29.25 348.51
  Q 29.01 344.56 29.05 341.76
  C 29.52 313.37 28.92 276.30 29.20 244.15
  Q 29.49 211.61 29.07 171.58
  Q 28.87 152.33 29.03 147.20
  Q 29.38 136.07 29.09 122.82
  Q 28.89 113.27 29.14 86.24
  Q 29.38 61.10 29.35 36.95
  Q 29.35 32.17 27.86 28.71
  Q 32.94 22.83 40.76 22.80
  Q 48.17 22.76 55.08 22.62
  A 0.67 0.67 0.0 0 1 55.76 23.29
  L 55.36 344.45
  Z"
/>
<path fill="#acb08c" d="
  M 314.90 40.17
  Q 314.14 41.14 314.15 43.73
  Q 314.25 81.64 314.08 191.16
  Q 314.06 204.78 314.24 224.34
  Q 314.40 241.67 314.42 257.50
  Q 314.43 268.59 314.29 279.66
  C 314.11 294.92 314.31 308.83 314.22 323.44
  C 314.20 326.49 313.73 328.83 313.35 331.59
  A 0.47 0.47 0.0 0 0 313.85 332.12
  Q 314.21 332.09 314.50 331.96
  Q 314.59 332.66 314.26 333.24
  L 310.75 338.19
  A 1.64 1.58 88.9 0 1 310.50 338.46
  C 307.91 340.63 305.11 343.52 301.82 344.89
  Q 297.08 346.86 292.50 346.86
  Q 176.42 346.80 60.33 346.96
  Q 60.14 342.96 60.15 338.75
  Q 60.34 128.23 60.40 48.96
  C 60.40 41.18 60.88 31.78 60.91 23.13
  A 0.58 0.57 -90.0 0 1 61.48 22.55
  Q 203.73 22.73 290.14 22.56
  Q 298.15 22.54 301.25 23.54
  Q 307.14 25.44 310.61 29.39
  Q 314.55 33.88 314.90 40.17
  Z
  M 185.41 152.34
  C 186.01 154.28 185.80 156.40 186.34 158.86
  C 189.43 172.70 199.47 183.81 214.47 181.67
  Q 221.25 180.70 227.28 175.41
  Q 233.47 169.96 236.27 164.05
  Q 239.90 156.39 241.83 144.94
  C 242.72 139.61 241.79 133.92 240.85 128.19
  C 238.04 111.06 222.19 95.58 204.62 107.40
  C 196.29 113.00 190.47 122.65 187.81 132.08
  Q 186.59 136.42 185.63 141.79
  A 0.38 0.38 0.0 0 1 184.88 141.80
  Q 184.38 139.42 183.93 136.81
  C 181.57 122.95 171.12 103.26 154.70 103.07
  C 142.46 102.93 133.47 114.27 130.37 125.38
  Q 128.15 133.31 128.25 141.39
  C 128.36 150.14 131.93 164.88 138.47 172.00
  C 145.75 179.93 155.13 184.17 165.65 180.59
  C 177.59 176.53 183.62 164.31 184.67 152.42
  A 0.38 0.38 0.0 0 1 185.41 152.34
  Z
  M 101.98 154.18
  C 91.82 158.08 87.54 169.44 87.33 179.82
  C 87.02 195.41 93.29 210.93 106.91 219.68
  C 113.53 223.93 120.90 224.82 128.06 222.07
  C 135.22 219.32 140.09 213.72 142.16 206.14
  C 146.42 190.52 140.69 174.80 130.02 163.42
  C 122.92 155.84 112.14 150.28 101.98 154.18
  Z
  M 239.12 222.08
  Q 242.23 223.41 244.26 223.74
  C 255.12 225.51 266.55 217.77 272.49 209.07
  Q 283.71 192.64 280.70 173.62
  Q 278.44 159.42 267.85 154.89
  Q 257.25 150.36 245.44 158.54
  Q 229.60 169.51 225.48 188.97
  C 223.29 199.28 225.59 212.89 234.38 219.52
  Q 236.02 220.75 239.12 222.08
  Z
  M 231.05 217.81
  C 224.60 210.88 219.22 200.60 215.48 195.30
  Q 206.20 182.14 191.71 178.98
  C 178.40 176.08 164.50 181.41 155.71 191.93
  Q 151.76 196.66 149.63 200.13
  C 144.26 208.90 139.14 215.58 132.31 222.18
  Q 126.73 227.58 124.42 231.43
  Q 119.72 239.26 118.42 243.66
  C 114.86 255.76 117.26 269.75 126.78 278.70
  C 134.86 286.28 147.73 287.14 158.05 284.53
  Q 164.54 282.89 171.02 281.28
  Q 183.09 278.26 195.76 281.47
  Q 209.96 285.07 215.87 285.84
  C 232.88 288.07 247.35 276.36 249.56 259.54
  Q 250.73 250.63 248.50 243.75
  C 245.13 233.34 238.58 225.90 231.05 217.81
  Z"
/>
<path fill="#5b6d63" d="
  M 27.86 28.71
  Q 29.35 32.17 29.35 36.95
  Q 29.38 61.10 29.14 86.24
  Q 28.89 113.27 29.09 122.82
  Q 29.38 136.07 29.03 147.20
  Q 28.87 152.33 29.07 171.58
  Q 29.49 211.61 29.20 244.15
  C 28.92 276.30 29.52 313.37 29.05 341.76
  Q 29.01 344.56 29.25 348.51
  A 0.66 0.66 0.0 0 0 30.12 349.10
  C 37.88 346.45 45.51 346.24 54.39 346.90
  A 0.67 0.66 10.9 0 0 55.08 346.44
  Q 55.38 345.54 55.36 344.45
  L 55.62 348.63
  A 0.57 0.56 89.5 0 1 55.04 349.23
  Q 49.17 349.01 39.80 349.30
  Q 29.48 349.61 24.80 358.38
  A 0.26 0.26 0.0 0 1 24.31 358.28
  Q 24.00 353.72 24.00 349.01
  Q 24.11 55.24 24.07 51.01
  C 23.98 41.35 23.66 35.75 27.86 28.71
  Z"
/>
<path fill="#9ca180" d="
  M 320.08 381.49
  Q 321.15 379.44 323.40 376.68
  Q 325.25 374.41 325.57 370.95
  Q 332.93 360.90 332.95 347.75
  Q 333.27 135.63 332.96 72.85
  C 332.94 68.39 333.20 63.28 332.43 59.12
  Q 330.25 47.38 320.15 40.12
  A 0.80 0.80 0.0 0 1 320.84 38.70
  C 327.28 40.56 332.03 44.48 334.65 50.88
  Q 337.17 57.06 337.17 62.28
  Q 337.03 229.97 337.20 345.31
  Q 337.22 359.00 335.61 364.13
  Q 331.98 375.65 320.08 381.49
  Z"
/>
<path fill="#d6d1bf" d="
  M 314.90 40.17
  Q 315.60 43.36 315.60 46.00
  Q 315.54 184.37 315.54 322.75
  Q 315.54 327.80 314.50 331.96
  Q 314.21 332.09 313.85 332.12
  A 0.47 0.47 0.0 0 1 313.35 331.59
  C 313.73 328.83 314.20 326.49 314.22 323.44
  C 314.31 308.83 314.11 294.92 314.29 279.66
  Q 314.43 268.59 314.42 257.50
  Q 314.40 241.67 314.24 224.34
  Q 314.06 204.78 314.08 191.16
  Q 314.25 81.64 314.15 43.73
  Q 314.14 41.14 314.90 40.17
  Z"
/>
<path fill="none" d="
  M 95.51 368.78
  Q 96.32 367.99 97.60 369.20
  A 0.56 0.55 -23.3 0 0 97.98 369.35
  Q 195.70 369.25 293.98 369.34
  Q 306.51 369.35 310.36 367.87
  C 320.65 363.89 324.27 354.50 326.47 344.12
  A 5.50 5.50 0.0 0 0 326.58 343.13
  Q 326.75 337.15 326.67 260.01
  Q 326.59 187.57 326.72 69.25
  C 326.73 64.73 327.08 60.58 326.89 56.28
  Q 326.76 53.33 325.57 51.71
  A 0.21 0.20 28.3 0 0 325.20 51.82
  C 324.89 59.22 325.11 67.43 325.11 72.48
  Q 324.87 213.58 325.03 278.00
  Q 325.11 313.69 324.78 336.32
  C 324.75 338.53 324.07 340.08 324.12 342.62
  Q 324.29 351.27 319.03 358.64
  C 313.42 366.51 304.28 367.89 295.00 367.87
  Q 250.58 367.79 118.50 367.89
  Q 113.50 367.89 99.38 367.75
  A 1.07 1.07 0.0 0 1 98.32 366.68
  L 98.32 363.15
  A 1.41 1.40 -0.8 0 1 99.69 361.75
  Q 110.74 361.48 112.00 361.48
  Q 209.54 361.73 296.26 361.51
  C 305.49 361.48 311.82 358.23 315.75 350.55
  Q 317.52 347.10 318.12 344.74
  Q 318.64 342.69 317.43 340.24
  Q 320.45 333.43 320.46 325.75
  Q 320.54 75.81 320.59 58.75
  Q 320.61 50.05 320.14 41.61
  A 0.40 0.40 0.0 0 1 320.83 41.32
  Q 323.07 43.80 325.27 46.47
  C 328.77 50.69 330.68 56.74 330.68 61.75
  Q 330.59 226.41 330.66 346.02
  Q 330.67 353.98 328.64 359.12
  Q 324.15 370.49 313.61 374.37
  Q 310.01 375.69 300.90 375.69
  Q 206.26 375.73 96.10 375.73
  A 0.54 0.53 89.4 0 1 95.57 375.20
  L 95.51 368.78
  Z"
/>
<path fill="#dcc197" d="
  M 95.51 368.78
  Q 95.16 364.79 95.53 360.16
  Q 95.69 358.13 94.03 356.96
  Q 93.70 356.73 91.77 357.12
  Q 91.01 356.33 90.00 356.32
  Q 75.57 356.22 53.82 356.59
  Q 50.08 357.03 50.11 359.67
  Q 50.21 366.96 49.87 374.94
  A 0.47 0.47 0.0 0 1 49.29 375.38
  C 41.83 373.74 34.27 367.23 34.09 358.95
  C 33.98 354.17 43.11 354.46 46.26 354.51
  C 70.14 354.84 95.63 354.50 115.58 354.49
  Q 204.03 354.45 285.59 354.52
  Q 298.08 354.53 302.74 352.94
  Q 312.02 349.76 317.43 340.24
  Q 318.64 342.69 318.12 344.74
  Q 317.52 347.10 315.75 350.55
  C 311.82 358.23 305.49 361.48 296.26 361.51
  Q 209.54 361.73 112.00 361.48
  Q 110.74 361.48 99.69 361.75
  A 1.41 1.40 -0.8 0 0 98.32 363.15
  L 98.32 366.68
  A 1.07 1.07 0.0 0 0 99.38 367.75
  Q 113.50 367.89 118.50 367.89
  Q 250.58 367.79 295.00 367.87
  C 304.28 367.89 313.42 366.51 319.03 358.64
  Q 324.29 351.27 324.12 342.62
  C 324.07 340.08 324.75 338.53 324.78 336.32
  Q 325.11 313.69 325.03 278.00
  Q 324.87 213.58 325.11 72.48
  C 325.11 67.43 324.89 59.22 325.20 51.82
  A 0.21 0.20 28.3 0 1 325.57 51.71
  Q 326.76 53.33 326.89 56.28
  C 327.08 60.58 326.73 64.73 326.72 69.25
  Q 326.59 187.57 326.67 260.01
  Q 326.75 337.15 326.58 343.13
  A 5.50 5.50 0.0 0 1 326.47 344.12
  C 324.27 354.50 320.65 363.89 310.36 367.87
  Q 306.51 369.35 293.98 369.34
  Q 195.70 369.25 97.98 369.35
  A 0.56 0.55 -23.3 0 1 97.60 369.20
  Q 96.32 367.99 95.51 368.78
  Z"
/>
<path fill="#2b2c28" d="
  M 185.41 152.34
  A 0.38 0.38 0.0 0 0 184.67 152.42
  C 183.62 164.31 177.59 176.53 165.65 180.59
  C 155.13 184.17 145.75 179.93 138.47 172.00
  C 131.93 164.88 128.36 150.14 128.25 141.39
  Q 128.15 133.31 130.37 125.38
  C 133.47 114.27 142.46 102.93 154.70 103.07
  C 171.12 103.26 181.57 122.95 183.93 136.81
  Q 184.38 139.42 184.88 141.80
  A 0.38 0.38 0.0 0 0 185.63 141.79
  Q 186.59 136.42 187.81 132.08
  C 190.47 122.65 196.29 113.00 204.62 107.40
  C 222.19 95.58 238.04 111.06 240.85 128.19
  C 241.79 133.92 242.72 139.61 241.83 144.94
  Q 239.90 156.39 236.27 164.05
  Q 233.47 169.96 227.28 175.41
  Q 221.25 180.70 214.47 181.67
  C 199.47 183.81 189.43 172.70 186.34 158.86
  C 185.80 156.40 186.01 154.28 185.41 152.34
  Z
  M 152.7769 110.5909
  A 32.34 20.97 -96.7 0 0 135.7232 145.1566
  A 32.34 20.97 -96.7 0 0 160.3231 174.8291
  A 32.34 20.97 -96.7 0 0 177.3768 140.2634
  A 32.34 20.97 -96.7 0 0 152.7769 110.5909
  Z
  M 219.2729 111.0018
  A 32.33 20.90 -80.2 0 0 193.1750 139.3026
  A 32.33 20.90 -80.2 0 0 208.2671 174.7182
  A 32.33 20.90 -80.2 0 0 234.3650 146.4174
  A 32.33 20.90 -80.2 0 0 219.2729 111.0018
  Z"
/>
<ellipse fill="none" cx="0.00" cy="0.00" transform="translate(156.55,142.71) rotate(-96.7)" rx="32.34" ry="20.97"/>
<ellipse fill="none" cx="0.00" cy="0.00" transform="translate(213.77,142.86) rotate(-80.2)" rx="32.33" ry="20.90"/>
<path fill="#2b2c28" d="
  M 128.06 222.07
  C 120.90 224.82 113.53 223.93 106.91 219.68
  C 93.29 210.93 87.02 195.41 87.33 179.82
  C 87.54 169.44 91.82 158.08 101.98 154.18
  C 112.14 150.28 122.92 155.84 130.02 163.42
  C 140.69 174.80 146.42 190.52 142.16 206.14
  C 140.09 213.72 135.22 219.32 128.06 222.07
  Z
  M 125.43 215.57
  C 136.44 211.37 138.00 197.75 135.36 187.29
  Q 131.73 172.91 119.92 164.02
  Q 111.85 157.94 104.53 160.74
  Q 97.20 163.53 95.22 173.43
  Q 92.33 187.93 99.19 201.08
  C 104.18 210.64 114.41 219.76 125.43 215.57
  Z"
/>
<path fill="#2b2c28" d="
  M 267.85 154.89
  Q 278.44 159.42 280.70 173.62
  Q 283.71 192.64 272.49 209.07
  C 266.55 217.77 255.12 225.51 244.26 223.74
  Q 242.23 223.41 239.12 222.08
  Q 236.02 220.75 234.38 219.52
  C 225.59 212.89 223.29 199.28 225.48 188.97
  Q 229.60 169.51 245.44 158.54
  Q 257.25 150.36 267.85 154.89
  Z
  M 242.09 215.60
  C 252.99 220.20 263.58 211.40 268.92 201.98
  Q 276.27 189.03 273.88 174.39
  Q 272.24 164.38 264.99 161.32
  Q 257.74 158.26 249.43 164.07
  Q 237.27 172.58 233.12 186.88
  C 230.10 197.28 231.19 211.00 242.09 215.60
  Z"
/>
<path fill="none" d="
  M 125.43 215.57
  C 114.41 219.76 104.18 210.64 99.19 201.08
  Q 92.33 187.93 95.22 173.43
  Q 97.20 163.53 104.53 160.74
  Q 111.85 157.94 119.92 164.02
  Q 131.73 172.91 135.36 187.29
  C 138.00 197.75 136.44 211.37 125.43 215.57
  Z"
/>
<path fill="none" d="
  M 264.99 161.32
  Q 272.24 164.38 273.88 174.39
  Q 276.27 189.03 268.92 201.98
  C 263.58 211.40 252.99 220.20 242.09 215.60
  C 231.19 211.00 230.10 197.28 233.12 186.88
  Q 237.27 172.58 249.43 164.07
  Q 257.74 158.26 264.99 161.32
  Z"
/>
<path fill="#2b2c28" d="
  M 231.05 217.81
  C 238.58 225.90 245.13 233.34 248.50 243.75
  Q 250.73 250.63 249.56 259.54
  C 247.35 276.36 232.88 288.07 215.87 285.84
  Q 209.96 285.07 195.76 281.47
  Q 183.09 278.26 171.02 281.28
  Q 164.54 282.89 158.05 284.53
  C 147.73 287.14 134.86 286.28 126.78 278.70
  C 117.26 269.75 114.86 255.76 118.42 243.66
  Q 119.72 239.26 124.42 231.43
  Q 126.73 227.58 132.31 222.18
  C 139.14 215.58 144.26 208.90 149.63 200.13
  Q 151.76 196.66 155.71 191.93
  C 164.50 181.41 178.40 176.08 191.71 178.98
  Q 206.20 182.14 215.48 195.30
  C 219.22 200.60 224.60 210.88 231.05 217.81
  Z
  M 129.20 236.92
  C 116.22 257.46 127.99 284.70 155.40 277.83
  Q 159.77 276.73 165.57 274.97
  C 176.55 271.65 188.90 271.43 199.90 274.73
  Q 208.36 277.27 211.23 278.01
  C 221.62 280.67 233.43 277.90 239.15 268.40
  C 245.17 258.42 243.71 244.95 237.19 235.68
  C 233.30 230.15 223.36 221.28 219.55 214.69
  C 215.02 206.88 210.92 199.32 204.33 193.22
  C 193.49 183.17 177.48 182.94 166.04 192.17
  Q 159.79 197.22 157.16 201.31
  Q 152.95 207.88 148.24 214.96
  C 143.92 221.45 134.29 228.88 129.20 236.92
  Z"
/>
<path fill="none" d="
  M 155.40 277.83
  C 127.99 284.70 116.22 257.46 129.20 236.92
  C 134.29 228.88 143.92 221.45 148.24 214.96
  Q 152.95 207.88 157.16 201.31
  Q 159.79 197.22 166.04 192.17
  C 177.48 182.94 193.49 183.17 204.33 193.22
  C 210.92 199.32 215.02 206.88 219.55 214.69
  C 223.36 221.28 233.30 230.15 237.19 235.68
  C 243.71 244.95 245.17 258.42 239.15 268.40
  C 233.43 277.90 221.62 280.67 211.23 278.01
  Q 208.36 277.27 199.90 274.73
  C 188.90 271.43 176.55 271.65 165.57 274.97
  Q 159.77 276.73 155.40 277.83
  Z"
/>
<path fill="#777c5e" d="
  M 314.26 333.24
  Q 314.21 335.72 312.61 338.38
  Q 308.54 345.15 302.01 347.75
  Q 297.72 349.46 287.79 349.35
  Q 280.95 349.28 61.12 349.34
  A 0.35 0.31 -21.7 0 1 60.90 349.26
  Q 60.10 348.63 60.33 346.96
  Q 176.42 346.80 292.50 346.86
  Q 297.08 346.86 301.82 344.89
  C 305.11 343.52 307.91 340.63 310.50 338.46
  A 1.64 1.58 88.9 0 0 310.75 338.19
  L 314.26 333.24
  Z"
/>
<path fill="#c48837" d="
  M 91.77 357.12
  Q 90.95 359.84 91.09 363.08
  L 89.82 364.54
  A 1.01 0.97 -69.1 0 1 89.07 364.89
  L 53.99 364.79
  L 53.82 356.59
  Q 75.57 356.22 90.00 356.32
  Q 91.01 356.33 91.77 357.12
  Z"
/>
<path fill="#5b6d63" d="
  M 30.41 359.08
  A 0.29 0.29 0.0 0 1 30.91 359.31
  Q 30.64 362.39 31.78 365.03
  Q 36.79 376.63 48.98 378.68
  A 1.29 1.28 -85.2 0 1 50.05 379.95
  L 50.05 382.27
  A 0.81 0.81 0.0 0 1 49.17 383.08
  C 41.31 382.35 35.19 377.70 30.02 371.78
  C 28.21 369.71 25.51 364.73 27.56 362.13
  Q 28.31 361.19 30.41 359.08
  Z"
/>
<path fill="#eeb355" d="
  M 91.09 363.08
  L 91.04 393.89
  A 0.31 0.30 15.0 0 1 90.58 394.15
  L 73.73 384.42
  A 2.39 2.37 -44.8 0 0 71.36 384.42
  L 54.67 394.06
  A 0.40 0.40 0.0 0 1 54.07 393.72
  L 53.99 364.79
  L 89.07 364.89
  A 1.01 0.97 -69.1 0 0 89.82 364.54
  L 91.09 363.08
  Z"
/>
<path fill="#777c5e" d="
  M 325.57 370.95
  Q 325.25 374.41 323.40 376.68
  Q 321.15 379.44 320.08 381.49
  Q 315.06 383.26 309.75 383.26
  Q 202.75 383.28 96.16 383.30
  A 0.90 0.90 0.0 0 1 95.26 382.40
  L 95.26 379.91
  A 0.74 0.74 0.0 0 1 96.00 379.17
  Q 175.07 378.99 285.00 379.07
  Q 306.08 379.09 309.51 378.82
  Q 318.16 378.13 325.57 370.95
  Z"
/>
<path fill="#d6d1bf" d="
  M 332.15 379.28
  Q 334.02 380.02 336.74 380.30
  Q 345.22 381.17 350.69 383.06
  Q 353.22 383.93 354.93 385.73
  A 2.15 2.15 0.0 0 1 355.14 388.44
  C 352.51 392.20 344.05 393.81 339.63 394.61
  C 320.82 397.97 303.61 399.12 282.39 399.27
  Q 200.21 399.88 127.75 399.82
  Q 105.68 399.80 94.25 400.02
  Q 92.80 400.05 91.92 399.31
  A 2.51 2.51 0.0 0 0 88.69 399.32
  Q 88.11 399.81 86.56 399.84
  C 75.80 400.04 62.47 400.45 52.83 399.82
  Q 36.64 398.76 16.55 394.18
  C 13.75 393.54 6.77 391.09 9.81 386.91
  C 11.98 383.92 24.02 381.71 27.54 381.05
  A 1.29 1.04 32.6 0 1 27.81 381.02
  L 32.56 381.01
  Q 40.08 386.62 49.57 387.65
  A 0.53 0.52 3.1 0 1 50.04 388.17
  L 50.04 395.10
  A 2.09 2.08 28.5 0 0 50.38 396.24
  Q 52.85 399.99 56.62 397.90
  Q 65.12 393.16 72.12 388.62
  A 0.56 0.55 -45.5 0 1 72.72 388.61
  Q 79.43 392.81 88.02 397.57
  Q 92.60 400.11 94.94 395.72
  A 1.67 1.58 -31.2 0 0 95.12 395.07
  L 95.35 388.57
  A 0.46 0.46 0.0 0 1 95.81 388.13
  Q 188.96 388.33 311.50 388.27
  Q 322.89 388.26 332.15 379.28
  Z"
/>
</svg>
